<svg width="18" height="18" viewBox="0 0 18 18" fill="none" xmlns="http://www.w3.org/2000/svg">
<path d="M3.2 14.475C4.05 13.875 4.95 13.396 5.9 13.038C6.85 12.6793 7.88333 12.5 9 12.5C10.1167 12.5 11.15 12.6793 12.1 13.038C13.05 13.396 13.95 13.875 14.8 14.475C15.4667 13.7917 16 12.9873 16.4 12.062C16.8 11.1373 17 10.1167 17 9C17 6.78333 16.221 4.89567 14.663 3.337C13.1043 1.779 11.2167 1 9 1C6.78333 1 4.896 1.779 3.338 3.337C1.77933 4.89567 1 6.78333 1 9C1 10.1167 1.2 11.1373 1.6 12.062C2 12.9873 2.53333 13.7917 3.2 14.475ZM9 9.5C8.15 9.5 7.43767 9.21233 6.863 8.637C6.28767 8.06233 6 7.35 6 6.5C6 5.65 6.28767 4.93733 6.863 4.362C7.43767 3.78733 8.15 3.5 9 3.5C9.85 3.5 10.5623 3.78733 11.137 4.362C11.7123 4.93733 12 5.65 12 6.5C12 7.35 11.7123 8.06233 11.137 8.637C10.5623 9.21233 9.85 9.5 9 9.5ZM9 18C7.75 18 6.575 17.7667 5.475 17.3C4.375 16.8333 3.421 16.196 2.613 15.388C1.80433 14.5793 1.16667 13.625 0.7 12.525C0.233333 11.425 0 10.25 0 9C0 7.75 0.233333 6.575 0.7 5.475C1.16667 4.375 1.80433 3.42067 2.613 2.612C3.421 1.804 4.375 1.16667 5.475 0.7C6.575 0.233333 7.75 0 9 0C10.25 0 11.425 0.233333 12.525 0.7C13.625 1.16667 14.5793 1.804 15.388 2.612C16.196 3.42067 16.8333 4.375 17.3 5.475C17.7667 6.575 18 7.75 18 9C18 10.25 17.7667 11.425 17.3 12.525C16.8333 13.625 16.196 14.5793 15.388 15.388C14.5793 16.196 13.625 16.8333 12.525 17.3C11.425 17.7667 10.25 18 9 18ZM9 17C9.91667 17 10.821 16.8373 11.713 16.512C12.6043 16.1873 13.375 15.75 14.025 15.2C13.375 14.6667 12.625 14.25 11.775 13.95C10.925 13.65 10 13.5 9 13.5C8 13.5 7.071 13.65 6.213 13.95C5.35433 14.25 4.60833 14.6667 3.975 15.2C4.625 15.75 5.39567 16.1873 6.287 16.512C7.179 16.8373 8.08333 17 9 17ZM9 8.5C9.56667 8.5 10.0417 8.30833 10.425 7.925C10.8083 7.54167 11 7.06667 11 6.5C11 5.93333 10.8083 5.45833 10.425 5.075C10.0417 4.69167 9.56667 4.5 9 4.5C8.43333 4.5 7.95833 4.69167 7.575 5.075C7.19167 5.45833 7 5.93333 7 6.5C7 7.06667 7.19167 7.54167 7.575 7.925C7.95833 8.30833 8.43333 8.5 9 8.5Z" fill="white"/>
</svg>
