<svg width="32" height="32" viewBox="0 0 32 32" fill="none" xmlns="http://www.w3.org/2000/svg">
<rect width="32" height="32" rx="16" fill="#E4F2D1"/>
<path d="M10.3709 10.8182H11.9022V18.0369C11.9022 18.6899 11.7729 19.2483 11.5144 19.7124C11.2592 20.1764 10.8996 20.531 10.4355 20.7763C9.97153 21.0182 9.42797 21.1392 8.80487 21.1392C8.23148 21.1392 7.71609 21.0348 7.2587 20.826C6.80463 20.6172 6.44502 20.3139 6.17987 19.9162C5.91803 19.5152 5.78711 19.0279 5.78711 18.4545H7.31339C7.31339 18.7363 7.37802 18.9799 7.50728 19.1854C7.63986 19.3909 7.82049 19.5516 8.04918 19.6676C8.28119 19.7803 8.54634 19.8366 8.84464 19.8366C9.16945 19.8366 9.44454 19.7687 9.66992 19.6328C9.89862 19.4936 10.0726 19.2898 10.1919 19.0213C10.3113 18.7528 10.3709 18.4247 10.3709 18.0369V10.8182ZM16.1317 21L13.3079 10.8182H14.9237L16.9073 18.7031H17.0018L19.065 10.8182H20.6658L22.729 18.7081H22.8235L24.8022 10.8182H26.4229L23.5941 21H22.0479L19.9052 13.3736H19.8256L17.6829 21H16.1317Z" fill="#014342"/>
</svg>
