<svg width="14" height="14" viewBox="0 0 14 14" fill="none" xmlns="http://www.w3.org/2000/svg">
<path d="M6.775 14C6.55834 14 6.375 13.925 6.225 13.775C6.075 13.625 6 13.4417 6 13.225V7.65L0.600003 0.825C0.46667 0.641666 0.450004 0.458333 0.550004 0.275C0.650004 0.0916668 0.808337 0 1.025 0H12.975C13.1917 0 13.35 0.0916668 13.45 0.275C13.55 0.458333 13.5333 0.641666 13.4 0.825L8 7.65V13.225C8 13.4417 7.925 13.625 7.775 13.775C7.625 13.925 7.44167 14 7.225 14H6.775ZM7 7.3L11.95 1H2.05L7 7.3Z" fill="#101010"/>
</svg>
