<svg width="20" height="10" viewBox="0 0 20 10" fill="none" xmlns="http://www.w3.org/2000/svg">
<path d="M8.62499 9.07481H4.99999C3.86665 9.07481 2.90432 8.6788 2.11299 7.8868C1.32099 7.09547 0.924988 6.13314 0.924988 4.9998C0.924988 3.86647 1.32099 2.90414 2.11299 2.1128C2.90432 1.3208 3.86665 0.924805 4.99999 0.924805H8.62499V1.9248H4.99999C4.14999 1.9248 3.42499 2.2248 2.82499 2.8248C2.22499 3.4248 1.92499 4.1498 1.92499 4.9998C1.92499 5.8498 2.22499 6.5748 2.82499 7.1748C3.42499 7.7748 4.14999 8.0748 4.99999 8.0748H8.62499V9.07481ZM6.49999 5.4998V4.4998H13.5V5.4998H6.49999ZM11.375 9.07481V8.0748H15C15.85 8.0748 16.575 7.7748 17.175 7.1748C17.775 6.5748 18.075 5.8498 18.075 4.9998C18.075 4.1498 17.775 3.4248 17.175 2.8248C16.575 2.2248 15.85 1.9248 15 1.9248H11.375V0.924805H15C16.1333 0.924805 17.096 1.3208 17.888 2.1128C18.6793 2.90414 19.075 3.86647 19.075 4.9998C19.075 6.13314 18.6793 7.09547 17.888 7.8868C17.096 8.6788 16.1333 9.07481 15 9.07481H11.375Z" fill="#1C1B1F"/>
</svg>
