<svg width="56" height="56" viewBox="0 0 56 56" fill="none" xmlns="http://www.w3.org/2000/svg">
<rect width="56" height="56" rx="28" fill="#F9F5FF"/>
<path d="M28.1021 27.7273C28.1021 29.2803 27.818 30.6155 27.2498 31.733C26.6816 32.8456 25.9028 33.7027 24.9132 34.304C23.9283 34.9006 22.8085 35.1989 21.5538 35.1989C20.2943 35.1989 19.1698 34.9006 18.1802 34.304C17.1954 33.7027 16.4189 32.8433 15.8507 31.7259C15.2825 30.6084 14.9984 29.2756 14.9984 27.7273C14.9984 26.1742 15.2825 24.8414 15.8507 23.7287C16.4189 22.6113 17.1954 21.7543 18.1802 21.1577C19.1698 20.5563 20.2943 20.2557 21.5538 20.2557C22.8085 20.2557 23.9283 20.5563 24.9132 21.1577C25.9028 21.7543 26.6816 22.6113 27.2498 23.7287C27.818 24.8414 28.1021 26.1742 28.1021 27.7273ZM25.9288 27.7273C25.9288 26.5436 25.737 25.5469 25.3535 24.7372C24.9747 23.9228 24.4539 23.3073 23.791 22.8906C23.1329 22.4692 22.3871 22.2585 21.5538 22.2585C20.7157 22.2585 19.9676 22.4692 19.3095 22.8906C18.6513 23.3073 18.1305 23.9228 17.747 24.7372C17.3682 25.5469 17.1788 26.5436 17.1788 27.7273C17.1788 28.911 17.3682 29.91 17.747 30.7244C18.1305 31.5341 18.6513 32.1496 19.3095 32.571C19.9676 32.9877 20.7157 33.196 21.5538 33.196C22.3871 33.196 23.1329 32.9877 23.791 32.571C24.4539 32.1496 24.9747 31.5341 25.3535 30.7244C25.737 29.91 25.9288 28.911 25.9288 27.7273ZM30.8382 35V20.4545H36.0229C37.1498 20.4545 38.0849 20.6487 38.8283 21.0369C39.5764 21.4252 40.1351 21.9626 40.5044 22.6491C40.8738 23.331 41.0584 24.1193 41.0584 25.0142C41.0584 25.9044 40.8714 26.688 40.4973 27.3651C40.128 28.0374 39.5693 28.5606 38.8212 28.9347C38.0778 29.3087 37.1427 29.4957 36.0158 29.4957H32.0882V27.6065H35.8169C36.5272 27.6065 37.1048 27.5047 37.5499 27.3011C37.9997 27.0975 38.3288 26.8016 38.5371 26.4134C38.7454 26.0251 38.8496 25.5587 38.8496 25.0142C38.8496 24.465 38.7431 23.9891 38.53 23.5866C38.3217 23.1842 37.9926 22.8764 37.5428 22.6634C37.0977 22.4455 36.513 22.3366 35.7885 22.3366H33.0328V35H30.8382ZM38.0186 28.4375L41.6124 35H39.1124L35.5897 28.4375H38.0186Z" fill="#7F56D9"/>
</svg>
