<svg width="33" height="11" viewBox="0 0 33 11" fill="none" xmlns="http://www.w3.org/2000/svg">
<path d="M0.27326 10V1.27273H5.68519V2.40625H1.59002V5.06534H5.29741V6.1946H1.59002V10H0.27326ZM9.08363 10.1449C8.66886 10.1449 8.29386 10.0682 7.95863 9.91477C7.6234 9.75852 7.35778 9.53267 7.16175 9.23722C6.96857 8.94176 6.87198 8.57955 6.87198 8.15057C6.87198 7.78125 6.943 7.47727 7.08505 7.23864C7.2271 7 7.41886 6.81108 7.66033 6.67188C7.90181 6.53267 8.1717 6.42756 8.46999 6.35653C8.76829 6.28551 9.07227 6.23153 9.38192 6.1946C9.77397 6.14915 10.0922 6.11222 10.3365 6.08381C10.5808 6.05256 10.7583 6.00284 10.8691 5.93466C10.9799 5.86648 11.0353 5.75568 11.0353 5.60227V5.57244C11.0353 5.20028 10.9302 4.91193 10.72 4.70739C10.5126 4.50284 10.2029 4.40057 9.79102 4.40057C9.36204 4.40057 9.02397 4.49574 8.77681 4.68608C8.53249 4.87358 8.36346 5.08239 8.26971 5.3125L7.07227 5.03977C7.21431 4.64205 7.4217 4.32102 7.69442 4.0767C7.96999 3.82955 8.28675 3.65057 8.64471 3.53977C9.00266 3.42614 9.37908 3.36932 9.77397 3.36932C10.0353 3.36932 10.3123 3.40057 10.6049 3.46307C10.9004 3.52273 11.176 3.63352 11.4316 3.79545C11.6902 3.95739 11.9018 4.18892 12.0666 4.49006C12.2314 4.78835 12.3137 5.17614 12.3137 5.65341V10H11.0694V9.10511H11.0183C10.9359 9.26989 10.8123 9.43182 10.6475 9.59091C10.4828 9.75 10.2711 9.8821 10.0126 9.98722C9.75408 10.0923 9.44442 10.1449 9.08363 10.1449ZM9.36062 9.12216C9.71289 9.12216 10.014 9.05256 10.264 8.91335C10.5169 8.77415 10.7086 8.59233 10.8393 8.3679C10.9728 8.14062 11.0396 7.89773 11.0396 7.6392V6.79545C10.9941 6.84091 10.9061 6.88352 10.7754 6.9233C10.6475 6.96023 10.5012 6.9929 10.3365 7.02131C10.1717 7.04687 10.0112 7.07102 9.85494 7.09375C9.69869 7.11364 9.568 7.13068 9.46289 7.14489C9.21573 7.17614 8.98988 7.22869 8.78533 7.30256C8.58363 7.37642 8.4217 7.48295 8.29954 7.62216C8.18022 7.75852 8.12056 7.94034 8.12056 8.16761C8.12056 8.48295 8.23704 8.72159 8.46999 8.88352C8.70295 9.04261 8.99982 9.12216 9.36062 9.12216ZM14.0108 10V3.45455H15.285V10H14.0108ZM14.6543 2.4446C14.4327 2.4446 14.2424 2.37074 14.0833 2.22301C13.927 2.07244 13.8489 1.89347 13.8489 1.68608C13.8489 1.47585 13.927 1.29687 14.0833 1.14915C14.2424 0.998579 14.4327 0.923295 14.6543 0.923295C14.8759 0.923295 15.0648 0.998579 15.2211 1.14915C15.3801 1.29687 15.4597 1.47585 15.4597 1.68608C15.4597 1.89347 15.3801 2.07244 15.2211 2.22301C15.0648 2.37074 14.8759 2.4446 14.6543 2.4446ZM18.2733 1.27273V10H16.9991V1.27273H18.2733ZM22.8084 10.1321C22.1635 10.1321 21.6081 9.99432 21.1422 9.71875C20.6792 9.44034 20.3212 9.04972 20.0684 8.54688C19.8184 8.04119 19.6934 7.44886 19.6934 6.76989C19.6934 6.09943 19.8184 5.50852 20.0684 4.99716C20.3212 4.4858 20.6735 4.08665 21.1252 3.79972C21.5797 3.51278 22.111 3.36932 22.7189 3.36932C23.0882 3.36932 23.4462 3.4304 23.7928 3.55256C24.1394 3.67472 24.4505 3.86648 24.726 4.12784C25.0016 4.3892 25.2189 4.72869 25.378 5.14631C25.5371 5.56108 25.6167 6.06534 25.6167 6.65909V7.1108H20.4135V6.15625H24.3681C24.3681 5.82102 24.2999 5.52415 24.1635 5.26562C24.0272 5.00426 23.8354 4.7983 23.5882 4.64773C23.3439 4.49716 23.057 4.42188 22.7275 4.42188C22.3695 4.42188 22.057 4.50994 21.79 4.68608C21.5257 4.85937 21.3212 5.08665 21.1763 5.3679C21.0343 5.64631 20.9632 5.94886 20.9632 6.27557V7.02131C20.9632 7.45881 21.04 7.83097 21.1934 8.13778C21.3496 8.4446 21.5669 8.67898 21.8453 8.84091C22.1238 9 22.449 9.07955 22.8212 9.07955C23.0627 9.07955 23.2828 9.04545 23.4817 8.97727C23.6806 8.90625 23.8525 8.80114 23.9973 8.66193C24.1422 8.52273 24.253 8.35085 24.3297 8.14631L25.5357 8.36364C25.4391 8.71875 25.2658 9.02983 25.0158 9.29688C24.7686 9.56108 24.4576 9.76705 24.0826 9.91477C23.7104 10.0597 23.2857 10.1321 22.8084 10.1321ZM29.4806 10.1278C28.9522 10.1278 28.4806 9.9929 28.0659 9.72301C27.6539 9.45028 27.3301 9.0625 27.0943 8.55966C26.8613 8.05398 26.7449 7.44744 26.7449 6.74006C26.7449 6.03267 26.8627 5.42756 27.0985 4.92472C27.3372 4.42187 27.6639 4.03693 28.0787 3.76989C28.4934 3.50284 28.9636 3.36932 29.4892 3.36932C29.8954 3.36932 30.2221 3.4375 30.4693 3.57386C30.7193 3.70739 30.9125 3.86364 31.0488 4.04261C31.188 4.22159 31.296 4.37926 31.3727 4.51562H31.4494V1.27273H32.7235V10H31.4792V8.98153H31.3727C31.296 9.12074 31.1852 9.27983 31.0403 9.45881C30.8983 9.63778 30.7022 9.79403 30.4522 9.92756C30.2022 10.0611 29.8784 10.1278 29.4806 10.1278ZM29.7619 9.04119C30.1284 9.04119 30.438 8.9446 30.6909 8.75142C30.9466 8.5554 31.1397 8.28409 31.2704 7.9375C31.4039 7.59091 31.4707 7.1875 31.4707 6.72727C31.4707 6.27273 31.4054 5.875 31.2747 5.53409C31.144 5.19318 30.9522 4.92756 30.6994 4.73722C30.4466 4.54687 30.1341 4.4517 29.7619 4.4517C29.3784 4.4517 29.0588 4.55114 28.8031 4.75C28.5474 4.94886 28.3542 5.22017 28.2235 5.56392C28.0957 5.90767 28.0318 6.29545 28.0318 6.72727C28.0318 7.16477 28.0971 7.55824 28.2278 7.90767C28.3585 8.2571 28.5517 8.53409 28.8074 8.73864C29.0659 8.94034 29.3841 9.04119 29.7619 9.04119Z" fill="#B42318"/>
</svg>
